name processed_emg_signals						
nRows=129						
nColumns=7						
 						
endheader						
time	RGLTMED	RRF	RADDLONG	RST	RTA	RGM
0	0.00597519	0.001895408	0.010769521	0.0110373	0.104243152	0.002151182
0.001	0.004639819	0.002454546	0.01137651	0.011529564	0.113683346	0.001004586
0.002	0.003303612	0.003015022	0.011984601	0.012014876	0.123120939	0.000138837
0.003	0.001967302	0.003576518	0.012593367	0.012492785	0.132549224	0.001278392
0.004	0.000631623	0.004138717	0.01320238	0.01296285	0.141961466	0.002413385
0.005	0.000702693	0.0047013	0.013811209	0.013424638	0.15135092	0.003543131
0.006	0.002034914	0.005263949	0.014419423	0.013877728	0.160710832	0.004666947
0.007	0.003364308	0.005826347	0.015026589	0.014321713	0.170034452	0.005784163
0.008	0.004690148	0.006388174	0.015632278	0.014756195	0.179315044	0.006894113
0.009	0.006011709	0.006949116	0.016236059	0.015180793	0.188545894	0.007996144
0.01	0.00732827	0.007508858	0.016837504	0.015595139	0.197720319	0.009089611
0.011	0.008639115	0.008067086	0.017436188	0.015998883	0.206831677	0.010173881
0.012	0.009943534	0.008623492	0.018031687	0.01639169	0.215873376	0.011248335
0.013	0.011240823	0.009177767	0.018623583	0.016773243	0.224838881	0.012312363
0.014	0.012530286	0.009729608	0.019211462	0.017143244	0.233721724	0.013365373
0.015	0.013811235	0.010278714	0.019794914	0.017501416	0.242515514	0.014406786
0.016	0.015082989	0.010824788	0.020373536	0.0178475	0.251213942	0.015436038
0.017	0.016344877	0.011367539	0.02094693	0.01818126	0.259810791	0.016452581
0.018	0.017596241	0.011906678	0.021514706	0.018502481	0.268299943	0.017455884
0.019	0.018836428	0.012441923	0.02207648	0.018810972	0.276675389	0.018445434
0.02	0.020064801	0.012972996	0.022631877	0.019106566	0.284931231	0.019420736
0.021	0.021280734	0.013499627	0.023180531	0.019389119	0.293061694	0.020381313
0.022	0.022483612	0.014021549	0.023722085	0.019658514	0.301061131	0.021326708
0.023	0.023672834	0.014538502	0.024256189	0.019914658	0.30892403	0.022256482
0.024	0.024847812	0.015050235	0.024782506	0.020157486	0.316645018	0.023170219
0.025	0.026007975	0.0155565	0.025300709	0.02038696	0.324218869	0.024067521
0.026	0.027152762	0.016057058	0.025810481	0.02060307	0.331640509	0.024948012
0.027	0.028281632	0.016551677	0.026311517	0.020805832	0.338905024	0.025811338
0.028	0.029394055	0.017040132	0.026803524	0.020995295	0.346007657	0.026657167
0.029	0.030489522	0.017522206	0.027286219	0.021171533	0.352943823	0.027485187
0.03	0.031567535	0.01799769	0.027759335	0.021334653	0.359709107	0.02829511
0.031	0.032627618	0.018466383	0.028222615	0.021484791	0.366299267	0.02908667
0.032	0.03366931	0.01892809	0.028675817	0.021622112	0.372710244	0.029859623
0.033	0.034692166	0.019382626	0.029118712	0.021746813	0.37893816	0.030613748
0.034	0.035695762	0.019829816	0.029551083	0.021859124	0.384979322	0.031348849
0.035	0.036679691	0.020269491	0.02997273	0.021959302	0.390830227	0.032064749
0.036	0.037643563	0.02070149	0.030383464	0.022047638	0.396487563	0.032761297
0.037	0.038587009	0.021125662	0.030783112	0.022124454	0.40194821	0.033438362
0.038	0.039509679	0.021541865	0.031171516	0.022190104	0.407209243	0.03409584
0.039	0.040411239	0.021949965	0.031548532	0.022244973	0.412267937	0.034733644
0.04	0.041291379	0.022349837	0.03191403	0.022289477	0.41712176	0.035351715
0.041	0.042149805	0.022741363	0.032267895	0.022324063	0.421768383	0.035950011
0.042	0.042986244	0.023124437	0.032610029	0.022349212	0.426205675	0.036528516
0.043	0.043800443	0.023498959	0.032940346	0.022365433	0.430431703	0.037087234
0.044	0.044592169	0.023864839	0.033258777	0.022373267	0.434444738	0.03762619
0.045	0.045361208	0.024221995	0.033565266	0.022373287	0.438243248	0.038145431
0.046	0.046107365	0.024570355	0.033859773	0.022366094	0.441825902	0.038645023
0.047	0.046830469	0.024909853	0.034142274	0.022352319	0.445191569	0.039125054
0.048	0.047530364	0.025240434	0.034412756	0.022332625	0.448339315	0.039585632
0.049	0.048206917	0.025562051	0.034671225	0.022307701	0.451268406	0.040026881
0.05	0.048860015	0.025874665	0.034917698	0.022278267	0.453978301	0.040448947
0.051	0.049489562	0.026178244	0.035152207	0.022245067	0.456468657	0.040851993
0.052	0.050095484	0.026472767	0.0353748	0.022208877	0.458739325	0.041236199
0.053	0.050677727	0.02675822	0.035585535	0.022170497	0.460790345	0.041601764
0.054	0.051236253	0.027034595	0.035784487	0.022130752	0.462621951	0.041948903
0.055	0.051771048	0.027301894	0.035971743	0.022090494	0.464234562	0.042277844
0.056	0.052282113	0.027560128	0.036147403	0.022050598	0.465628784	0.042588834
0.057	0.052769469	0.027809312	0.03631158	0.022011962	0.466805406	0.042882133
0.058	0.053233158	0.028049473	0.036464398	0.021975508	0.467765401	0.043158015
0.059	0.053673235	0.028280641	0.036605995	0.021942178	0.468509917	0.043416767
0.06	0.054089779	0.028502856	0.036736521	0.021912935	0.469040279	0.04365869
0.061	0.054482883	0.028716165	0.036856135	0.021888761	0.469357986	0.043884096
0.062	0.054852658	0.028920621	0.036965009	0.021870656	0.469464705	0.044093309
0.063	0.055199234	0.029116285	0.037063324	0.02185964	0.469362271	0.044286662
0.064	0.055522755	0.029303223	0.037151275	0.021856744	0.469052683	0.044464501
0.065	0.055823385	0.02948151	0.037229061	0.021863018	0.4685381	0.044627178
0.066	0.0561013	0.029651225	0.037296895	0.021879523	0.467820836	0.044775056
0.067	0.056356696	0.029812455	0.037354998	0.021907334	0.466903363	0.044908504
0.068	0.056589782	0.029965292	0.037403598	0.021947536	0.465788298	0.045027901
0.069	0.056800782	0.030109834	0.037442933	0.022001223	0.464478408	0.045133631
0.07	0.056989936	0.030246185	0.037473246	0.022069498	0.462976601	0.045226083
0.071	0.057157497	0.030374454	0.037494792	0.022153472	0.461285923	0.045305653
0.072	0.057303732	0.030494757	0.037507827	0.022254259	0.459409558	0.045372741
0.073	0.057428923	0.030607213	0.037512618	0.022372978	0.457350819	0.045427751
0.074	0.057533362	0.030711946	0.037509434	0.02251075	0.455113146	0.045471091
0.075	0.057617356	0.030809087	0.037498553	0.022668698	0.452700106	0.04550317
0.076	0.057681224	0.03089877	0.037480255	0.022847943	0.450115382	0.045524401
0.077	0.057725296	0.030981134	0.037454826	0.023049605	0.447362773	0.045535199
0.078	0.057749913	0.031056321	0.037422555	0.0232748	0.444446193	0.045535978
0.079	0.057755426	0.031124478	0.037383736	0.023524637	0.441369659	0.045527154
0.08	0.057742198	0.031185757	0.037338665	0.02380022	0.438137294	0.045509142
0.081	0.0577106	0.031240311	0.037287639	0.024102644	0.43475332	0.045482357
0.082	0.057661014	0.031288298	0.03723096	0.024432994	0.431222053	0.045447212
0.083	0.057593829	0.03132988	0.037168931	0.024792342	0.427547902	0.04540412
0.084	0.057509444	0.03136522	0.037101855	0.025181748	0.423735359	0.04535349
0.085	0.057408263	0.031394485	0.037030035	0.025602257	0.419789003	0.045295729
0.086	0.057290699	0.031417844	0.036953778	0.026054896	0.415713486	0.04523124
0.087	0.057157171	0.03143547	0.036873387	0.026540675	0.411513535	0.045160426
0.088	0.057008104	0.031447537	0.036789167	0.027060582	0.407193948	0.045083681
0.089	0.056843929	0.031454221	0.03670142	0.027615586	0.402759585	0.045001398
0.09	0.056665081	0.0314557	0.036610449	0.02820663	0.398215365	0.044913964
0.091	0.056471999	0.031452154	0.036516553	0.028834635	0.393566264	0.044821762
0.092	0.056265125	0.031443763	0.03642003	0.029500493	0.388817309	0.044725167
0.093	0.056044907	0.031430709	0.036321176	0.030205069	0.383973571	0.044624552
0.094	0.055811792	0.031413177	0.036220282	0.030949199	0.379040164	0.04452028
0.095	0.055566231	0.03139135	0.036117637	0.031733684	0.374022236	0.044412711
0.096	0.055308674	0.031365413	0.036013527	0.032559297	0.36892497	0.044302195
0.097	0.055039575	0.031335551	0.035908233	0.033426774	0.363753575	0.044189077
0.098	0.054759385	0.031301949	0.035802032	0.034336814	0.358513282	0.044073695
0.099	0.054468555	0.031264793	0.035695196	0.03529008	0.353209341	0.043956379
0.1	0.054167536	0.031224267	0.035587992	0.036287196	0.347847014	0.043837451
0.101	0.053856776	0.031180556	0.035480683	0.037328745	0.342431574	0.043717226
0.102	0.053536721	0.031133845	0.035373524	0.038415268	0.336968296	0.043596011
0.103	0.053207816	0.031084316	0.035266767	0.039547263	0.331462456	0.043474103
0.104	0.052870499	0.031032152	0.035160655	0.040725182	0.325919326	0.043351793
0.105	0.052525208	0.030977533	0.035055427	0.041949434	0.320344167	0.043229362
0.106	0.052172374	0.030920641	0.034951315	0.043220377	0.31474223	0.043107084
0.107	0.051812423	0.030861652	0.034848542	0.044538324	0.309118747	0.042985222
0.108	0.051445778	0.030800743	0.034747326	0.045903537	0.303478927	0.042864033
0.109	0.051072853	0.030738089	0.034647878	0.047316226	0.297827957	0.042743763
0.11	0.050694059	0.030673862	0.034550402	0.048776551	0.292170991	0.04262465
0.111	0.050309797	0.030608233	0.034455092	0.050284618	0.286513154	0.042506923
0.112	0.049920464	0.03054137	0.034362136	0.051840481	0.280859531	0.042390801
0.113	0.049526446	0.030473438	0.034271715	0.053444138	0.275215168	0.042276495
0.114	0.049128124	0.0304046	0.034184	0.055095531	0.269585068	0.042164208
0.115	0.048725869	0.030335017	0.034099155	0.056794549	0.263974184	0.042054131
0.116	0.048320044	0.030264844	0.034017337	0.05854102	0.258387422	0.041946449
0.117	0.047911004	0.030194238	0.033938692	0.060334718	0.252829633	0.041841336
0.118	0.047499093	0.030123348	0.03386336	0.062175358	0.247305611	0.041738959
0.119	0.047084647	0.030052323	0.033791471	0.064062598	0.241820092	0.041639474
0.12	0.046667992	0.029981307	0.033723149	0.065996035	0.23637775	0.041543029
0.121	0.046249443	0.029910442	0.033658506	0.067975211	0.230983194	0.041449765
0.122	0.045829308	0.029839865	0.033597648	0.069999605	0.225640965	0.041359811
0.123	0.045407881	0.029769711	0.033540672	0.072068639	0.220355536	0.041273291
0.124	0.044985448	0.029700109	0.033487666	0.074181678	0.215131308	0.041190318
0.125	0.044562285	0.029631188	0.03343871	0.076338026	0.209972608	0.041110998
0.126	0.044138657	0.029563068	0.033393876	0.078536928	0.204883688	0.041035429
0.127	0.043714817	0.029495871	0.033353225	0.080777572	0.199868722	0.0409637
0.128	0.04329101	0.029429711	0.033316813	0.083059088	0.194931803	0.040895894
